:FULLY-SPECIFIED
:FORCE-ALL-JOINTS-BE-3DOF
:DEGREES
1053
root 1.2103 15.1596 32.5572 4.9027 -3.42989 3.46279
lfemur 8.7354 0.497938 5.63544
ltibia 0.121248 -0 0
lfoot -30.4406 -11.2035 -0.00029959
ltoes -34.1918 0 0
rfemur -31.0859 -15.6727 -6.31946
rtibia 50.017 -0 0
rfoot -21.8583 5.46176 -8.80472e-06
rtoes -40.935 0 0
lowerback -1.82407 -0.0541694 -0.258669
upperback -0.487303 -0.0346716 -6.04571
thorax 0.519138 -0.0191343 -6.12148
lowerneck -6.97971 0.759678 6.56652
upperneck 1.24618 0.331173 3.65148
head 1.57668 0.290001 0.0480643
lclavicle -5.76476e-15 4.77083e-14 0
lhumerus -58.7044 -46.838 115.402
lradius 55.8014 -0 0
lwrist 25.5285 0 0
lhand 37.4202 25.3241 -1.18443e-05
lfingers 7.12502 -0 0
lthumb 60.2244 38.8666 -1.37962e-05
rclavicle -5.76476e-15 4.77083e-14 0
rhumerus 2.17225 -23.5216 0.60443
rradius 27.4924 -0 0
rwrist -9.73267 0 0
rhand -30.5338 -42.0476 -3.80708e-05
rfingers 7.12502 -0 0
rthumb -3.83297 -71.9932 -3.71565e-05
1054
root 1.2134 15.16 32.5633 4.90672 -3.43321 3.4533
lfemur 8.71307 0.504989 5.62254
ltibia 0.199115 -0 0
lfoot -30.4885 -11.1873 -0.000472035
ltoes -34.1927 0 0
rfemur -31.0602 -15.6514 -6.32471
rtibia 49.9983 -0 0
rfoot -21.8517 5.45871 -1.24778e-05
rtoes -40.9149 0 0
lowerback -1.83712 -0.0548377 -0.271462
upperback -0.488374 -0.034938 -6.03973
thorax 0.525369 -0.019205 -6.10784
lowerneck -6.98178 0.756838 6.56118
upperneck 1.2505 0.327306 3.65547
head 1.57836 0.288307 0.0500875
lclavicle -5.76476e-15 4.77083e-14 0
lhumerus -58.6982 -46.8369 115.409
lradius 55.7983 -0 0
lwrist 25.5338 0 0
lhand 37.4261 25.3246 -1.82222e-05
lfingers 7.12502 -0 0
lthumb 60.2294 38.8617 -2.13244e-05
rclavicle -5.76476e-15 4.77083e-14 0
rhumerus 2.16236 -23.4999 0.607025
rradius 27.4949 -0 0
rwrist -9.71097 0 0
rhand -30.5404 -42.0279 -5.64964e-05
rfingers 7.12502 -0 0
rthumb -3.83933 -71.9733 -5.51891e-05
1055
root 1.21619 15.1604 32.5688 4.91092 -3.43703 3.44273
lfemur 8.68711 0.512819 5.60853
ltibia 0.286743 -0 0
lfoot -30.5417 -11.1683 -0.000647837
ltoes -34.1946 0 0
rfemur -31.0328 -15.6289 -6.32946
rtibia 49.9781 -0 0
rfoot -21.8456 5.45496 -1.55122e-05
rtoes -40.8958 0 0
lowerback -1.85073 -0.0557194 -0.284359
upperback -0.489692 -0.0354832 -6.03286
thorax 0.531623 -0.0194205 -6.09319
lowerneck -6.98479 0.754143 6.55451
upperneck 1.25712 0.323532 3.65975
head 1.58097 0.286751 0.0524319
lclavicle -5.76476e-15 4.77083e-14 0
lhumerus -58.691 -46.8349 115.416
lradius 55.7944 -0 0
lwrist 25.5388 0 0
lhand 37.4323 25.3241 -2.46412e-05
lfingers 7.12502 -0 0
lthumb 60.2348 38.8555 -2.88346e-05
rclavicle -5.76476e-15 4.77083e-14 0
rhumerus 2.15343 -23.4768 0.60836
rradius 27.4977 -0 0
rwrist -9.68726 0 0
rhand -30.5481 -42.0082 -7.3338e-05
rfingers 7.12502 -0 0
rthumb -3.84679 -71.9535 -7.17046e-05
1056
root 1.21868 15.1609 32.5739 4.91525 -3.44128 3.43126
lfemur 8.65795 0.521312 5.59359
ltibia 0.38283 -0 0
lfoot -30.5993 -11.1469 -0.000818422
ltoes -34.1975 0 0
rfemur -31.0041 -15.6054 -6.33371
rtibia 49.9566 -0 0
rfoot -21.84 5.4506 -1.78357e-05
rtoes -40.8776 0 0
lowerback -1.86473 -0.0567953 -0.297246
upperback -0.491232 -0.0362864 -6.02519
thorax 0.537847 -0.0197709 -6.07771
lowerneck -6.98865 0.751606 6.54664
upperneck 1.26588 0.319879 3.66426
head 1.58442 0.28534 0.0550592
lclavicle -5.76476e-15 4.77083e-14 0
lhumerus -58.6829 -46.8321 115.424
lradius 55.7898 -0 0
lwrist 25.5433 0 0
lhand 37.4389 25.3227 -3.08917e-05
lfingers 7.12502 -0 0
lthumb 60.2404 38.8481 -3.60089e-05
rclavicle -5.76476e-15 4.77083e-14 0
rhumerus 2.14548 -23.4524 0.608498
rradius 27.5008 -0 0
rwrist -9.66187 0 0
rhand -30.5569 -41.9886 -8.787e-05
rfingers 7.12502 -0 0
rthumb -3.85522 -71.9337 -8.59896e-05
1057
root 1.22092 15.1613 32.5786 4.91967 -3.44589 3.41902
lfemur 8.62602 0.530358 5.57788
ltibia 0.486075 -0 0
lfoot -30.6606 -11.1232 -0.000975783
ltoes -34.2012 0 0
rfemur -30.9744 -15.5813 -6.33743
rtibia 49.934 -0 0
rfoot -21.8348 5.44569 -1.94089e-05
rtoes -40.8605 0 0
lowerback -1.87899 -0.0580456 -0.310011
upperback -0.492969 -0.0373267 -6.01684
thorax 0.543987 -0.020246 -6.06158
lowerneck -6.99329 0.749241 6.53771
upperneck 1.27656 0.31637 3.66896
head 1.58864 0.284077 0.057931
lclavicle -5.76476e-15 4.77083e-14 0
lhumerus -58.6741 -46.8286 115.432
lradius 55.7846 -0 0
lwrist 25.5473 0 0
lhand 37.4458 25.3205 -3.67637e-05
lfingers 7.12502 -0 0
lthumb 60.2463 38.8396 -4.25509e-05
rclavicle -5.76476e-15 4.77083e-14 0
rhumerus 2.13853 -23.4271 0.607503
rradius 27.5041 -0 0
rwrist -9.6351 0 0
rhand -30.5665 -41.9693 -9.95114e-05
rfingers 7.12502 -0 0
rthumb -3.8645 -71.9143 -9.7471e-05
1058
root 1.22292 15.1617 32.5829 4.92413 -3.45082 3.40616
lfemur 8.59174 0.539844 5.5616
ltibia 0.595176 -0 0
lfoot -30.7249 -11.0977 -0.00111275
ltoes -34.2056 0 0
rfemur -30.9439 -15.5567 -6.34062
rtibia 49.9105 -0 0
rfoot -21.8301 5.44031 -2.02234e-05
rtoes -40.8446 0 0
lowerback -1.89336 -0.0594507 -0.322539
upperback -0.494877 -0.0385831 -6.00792
thorax 0.549989 -0.0208358 -6.04499
lowerneck -6.99863 0.747063 6.52786
upperneck 1.28899 0.313033 3.67378
head 1.59355 0.282968 0.061009
lclavicle -5.76476e-15 4.77083e-14 0
lhumerus -58.6647 -46.8244 115.44
lradius 55.7788 -0 0
lwrist 25.5509 0 0
lhand 37.4529 25.3175 -4.20545e-05
lfingers 7.12502 -0 0
lthumb 60.2523 38.8301 -4.81958e-05
rclavicle -5.76476e-15 4.77083e-14 0
rhumerus 2.1326 -23.4011 0.605437
rradius 27.5076 -0 0
rwrist -9.60727 0 0
rhand -30.5768 -41.9506 -0.000107837
rfingers 7.12502 -0 0
rthumb -3.8745 -71.8953 -0.000105727
1059
root 1.22471 15.1622 32.5869 4.92859 -3.45599 3.39285
lfemur 8.55555 0.549656 5.54493
ltibia 0.708832 -0 0
lfoot -30.7914 -11.0707 -0.00122319
ltoes -34.2108 0 0
rfemur -30.9131 -15.5319 -6.34326
rtibia 49.8866 -0 0
rfoot -21.8259 5.43452 -2.03004e-05
rtoes -40.8301 0 0
lowerback -1.90769 -0.0609906 -0.334716
upperback -0.496932 -0.0400347 -5.99854
thorax 0.5558 -0.0215298 -6.02812
lowerneck -7.00458 0.745084 6.51721
upperneck 1.30297 0.309893 3.67869
head 1.59908 0.282018 0.0642549
lclavicle -5.76476e-15 4.77083e-14 0
lhumerus -58.6548 -46.8196 115.449
lradius 55.7726 -0 0
lwrist 25.5541 0 0
lhand 37.4601 25.3138 -4.65752e-05
lfingers 7.12502 -0 0
lthumb 60.2584 38.8199 -5.2718e-05
rclavicle -5.76476e-15 4.77083e-14 0
rhumerus 2.1277 -23.3747 0.602364
rradius 27.5113 -0 0
rwrist -9.5787 0 0
rhand -30.5878 -41.9324 -0.000112584
rfingers 7.12502 -0 0
rthumb -3.88509 -71.8769 -0.000110493
1060
root 1.22633 15.1626 32.5905 4.93301 -3.46134 3.37922
lfemur 8.51787 0.559685 5.52804
ltibia 0.825742 -0 0
lfoot -30.8593 -11.0425 -0.00130225
ltoes -34.2166 0 0
rfemur -30.8823 -15.5072 -6.34535
rtibia 49.8623 -0 0
rfoot -21.8222 5.4284 -1.96883e-05
rtoes -40.8169 0 0
lowerback -1.92184 -0.0626455 -0.346429
upperback -0.499106 -0.0416607 -5.98881
thorax 0.561367 -0.0223179 -6.01114
lowerneck -7.01107 0.743319 6.5059
upperneck 1.31832 0.306975 3.68361
head 1.60515 0.28123 0.0676302
lclavicle -5.76476e-15 4.77083e-14 0
lhumerus -58.6445 -46.8143 115.458
lradius 55.766 -0 0
lwrist 25.5567 0 0
lhand 37.4673 25.3095 -5.01562e-05
lfingers 7.12502 -0 0
lthumb 60.2645 38.8089 -5.59377e-05
rclavicle -5.76476e-15 4.77083e-14 0
rhumerus 2.12385 -23.3483 0.598347
rradius 27.515 -0 0
rwrist -9.54969 0 0
rhand -30.5992 -41.9151 -0.000113655
rfingers 7.12502 -0 0
rthumb -3.89614 -71.8594 -0.000111668
1061
root 1.22781 15.163 32.594 4.93733 -3.46682 3.36543
lfemur 8.47914 0.569818 5.51112
ltibia 0.944604 -0 0
lfoot -30.9279 -11.0134 -0.00134642
ltoes -34.2229 0 0
rfemur -30.8517 -15.4829 -6.34687
rtibia 49.8381 -0 0
rfoot -21.8192 5.42202 -1.84601e-05
rtoes -40.8053 0 0
lowerback -1.93567 -0.0643952 -0.357564
upperback -0.501376 -0.0434401 -5.97884
thorax 0.566635 -0.0231896 -5.99424
lowerneck -7.01802 0.741781 6.49407
upperneck 1.33483 0.304306 3.6885
head 1.61169 0.28061 0.0710968
lclavicle -5.76476e-15 4.77083e-14 0
lhumerus -58.6339 -46.8086 115.466
lradius 55.7591 -0 0
lwrist 25.5588 0 0
lhand 37.4745 25.3045 -5.26524e-05
lfingers 7.12502 -0 0
lthumb 60.2707 38.7974 -5.77259e-05
rclavicle -5.76476e-15 4.77083e-14 0
rhumerus 2.12106 -23.322 0.593449
rradius 27.5189 -0 0
rwrist -9.52057 0 0
rhand -30.611 -41.8987 -0.000111122
rfingers 7.12502 -0 0
rthumb -3.90754 -71.8428 -0.000109314
